<?xml version="1.0" encoding="UTF-8" standalone="no"?>
<svg
   height="100%"
   style="fill-rule:evenodd;clip-rule:evenodd;stroke-linejoin:round;stroke-miterlimit:2;"
   version="1.1"
   viewBox="0 0 512 512"
   width="100%"
   xml:space="preserve"
   id="svg4"
   sodipodi:docname="facebook-icon.svg"
   inkscape:version="1.2 (dc2aedaf03, 2022-05-15)"
   xmlns:inkscape="http://www.inkscape.org/namespaces/inkscape"
   xmlns:sodipodi="http://sodipodi.sourceforge.net/DTD/sodipodi-0.dtd"
   xmlns="http://www.w3.org/2000/svg"
   xmlns:svg="http://www.w3.org/2000/svg"><defs
     id="defs8" /><sodipodi:namedview
     id="namedview6"
     pagecolor="#ffffff"
     bordercolor="#000000"
     borderopacity="0.25"
     inkscape:showpageshadow="2"
     inkscape:pageopacity="0.0"
     inkscape:pagecheckerboard="0"
     inkscape:deskcolor="#d1d1d1"
     showgrid="false"
     inkscape:zoom="0.79492188"
     inkscape:cx="78.624078"
     inkscape:cy="189.32678"
     inkscape:window-width="1920"
     inkscape:window-height="1001"
     inkscape:window-x="-9"
     inkscape:window-y="-9"
     inkscape:window-maximized="1"
     inkscape:current-layer="svg4" /><path
     style="fill:#4867aa;stroke:#4867aa;stroke-width:2.21564;stroke-opacity:1;fill-opacity:1"
     d="m 229.26781,510.99559 c -7.24875,-0.48776 -21.68056,-2.07366 -25.94421,-2.85101 l -2.04248,-0.37238 -0.15899,-111.10477 -0.15899,-111.10478 -40.41277,-0.16187 -40.41278,-0.16187 v -45.59734 -45.59734 h 40.53554 40.53553 l 0.23986,-44.81573 c 0.26501,-49.514462 0.25808,-49.413911 4.57854,-66.337644 10.44717,-40.922699 38.18652,-68.471395 78.92939,-78.3868862 19.44694,-4.73275535 42.98914,-5.34039222 76.08532,-1.9638031 9.37937,0.9569163 26.89169,3.2014087 29.4054,3.7687866 l 1.41524,0.3194364 V 45.299453 83.970516 h -20.69012 c -29.09584,0 -37.29102,1.04592 -47.68342,6.085667 -3.78677,1.836376 -6.13169,3.599473 -10.2921,7.738415 -5.90828,5.877792 -8.71547,10.693762 -11.3737,19.512532 -1.39244,4.61945 -1.42652,5.46543 -1.64093,40.72727 l -0.21896,36.00983 h 44.10502 c 41.70259,0 44.08828,0.0599 43.79754,1.10073 -0.16911,0.60541 -3.35565,21.12629 -7.08119,45.60197 l -6.77371,44.50123 h -36.99068 -36.99068 v 111.26169 111.2617 l -2.04422,0.37081 c -16.2769,2.9526 -47.79299,4.26118 -68.71745,2.85323 z"
     id="path375"
     inkscape:label="path375" /></svg>
